G04*
G04 #@! TF.GenerationSoftware,Altium Limited,Altium Designer,22.3.1 (43)*
G04*
G04 Layer_Color=32896*
%FSLAX25Y25*%
%MOIN*%
G70*
G04*
G04 #@! TF.SameCoordinates,484125FD-B89B-48E9-9A3C-9D2F2E1798F3*
G04*
G04*
G04 #@! TF.FilePolarity,Positive*
G04*
G01*
G75*
G36*
X-189925Y270031D02*
X-189681Y269997D01*
X-189450Y269950D01*
X-189242Y269881D01*
X-189034Y269800D01*
X-188848Y269696D01*
X-188675Y269592D01*
X-188524Y269464D01*
X-188374Y269326D01*
X-188235Y269187D01*
X-188120Y269025D01*
X-188004Y268863D01*
X-187819Y268527D01*
X-187657Y268192D01*
X-187541Y267845D01*
X-187449Y267509D01*
X-187391Y267185D01*
X-187344Y266907D01*
X-187333Y266780D01*
X-187321Y266676D01*
X-187310Y266572D01*
Y266491D01*
X-187298Y266422D01*
Y266375D01*
Y266340D01*
Y266329D01*
X-187310Y265993D01*
X-187333Y265681D01*
X-187367Y265392D01*
X-187414Y265126D01*
X-187472Y264871D01*
X-187541Y264640D01*
X-187610Y264431D01*
X-187680Y264246D01*
X-187749Y264073D01*
X-187819Y263934D01*
X-187888Y263807D01*
X-187946Y263714D01*
X-187992Y263633D01*
X-188027Y263575D01*
X-188050Y263541D01*
X-188062Y263529D01*
X-188212Y263355D01*
X-188374Y263205D01*
X-188548Y263078D01*
X-188721Y262962D01*
X-188906Y262870D01*
X-189091Y262800D01*
X-189265Y262731D01*
X-189438Y262684D01*
X-189601Y262638D01*
X-189751Y262603D01*
X-189890Y262592D01*
X-190006Y262569D01*
X-190098D01*
X-190179Y262557D01*
X-190237D01*
X-190399Y262569D01*
X-190561Y262580D01*
X-190862Y262638D01*
X-191151Y262742D01*
X-191405Y262870D01*
X-191637Y263020D01*
X-191857Y263182D01*
X-192042Y263367D01*
X-192215Y263552D01*
X-192366Y263737D01*
X-192493Y263922D01*
X-192597Y264084D01*
X-192690Y264235D01*
X-192759Y264362D01*
X-192805Y264466D01*
X-192829Y264524D01*
X-192840Y264547D01*
X-191984Y264906D01*
X-191868Y264628D01*
X-191741Y264397D01*
X-191614Y264200D01*
X-191498Y264038D01*
X-191394Y263911D01*
X-191313Y263818D01*
X-191255Y263772D01*
X-191232Y263749D01*
X-191058Y263633D01*
X-190896Y263541D01*
X-190723Y263483D01*
X-190572Y263436D01*
X-190445Y263413D01*
X-190341Y263402D01*
X-190272Y263390D01*
X-190248D01*
X-190075Y263402D01*
X-189913Y263425D01*
X-189762Y263460D01*
X-189624Y263506D01*
X-189381Y263621D01*
X-189184Y263760D01*
X-189034Y263888D01*
X-188929Y264003D01*
X-188883Y264050D01*
X-188860Y264084D01*
X-188848Y264107D01*
X-188837Y264119D01*
X-188756Y264269D01*
X-188687Y264431D01*
X-188571Y264778D01*
X-188501Y265149D01*
X-188444Y265508D01*
X-188420Y265669D01*
X-188409Y265820D01*
X-188397Y265970D01*
Y266086D01*
X-188386Y266190D01*
Y266260D01*
Y266317D01*
Y266329D01*
Y266595D01*
X-188409Y266850D01*
X-188432Y267069D01*
X-188455Y267289D01*
X-188490Y267486D01*
X-188524Y267659D01*
X-188559Y267822D01*
X-188605Y267960D01*
X-188652Y268088D01*
X-188687Y268192D01*
X-188721Y268284D01*
X-188756Y268365D01*
X-188791Y268423D01*
X-188802Y268458D01*
X-188825Y268481D01*
Y268493D01*
X-188918Y268620D01*
X-189010Y268724D01*
X-189115Y268816D01*
X-189230Y268898D01*
X-189334Y268967D01*
X-189450Y269025D01*
X-189670Y269106D01*
X-189878Y269164D01*
X-189959Y269175D01*
X-190040Y269187D01*
X-190098Y269198D01*
X-190191D01*
X-190387Y269187D01*
X-190572Y269140D01*
X-190746Y269083D01*
X-190885Y269025D01*
X-191000Y268955D01*
X-191093Y268898D01*
X-191139Y268851D01*
X-191163Y268840D01*
X-191313Y268701D01*
X-191440Y268550D01*
X-191544Y268388D01*
X-191637Y268238D01*
X-191706Y268099D01*
X-191753Y267995D01*
X-191764Y267949D01*
X-191776Y267914D01*
X-191787Y267902D01*
Y267891D01*
X-192690Y268238D01*
X-192551Y268550D01*
X-192389Y268840D01*
X-192204Y269071D01*
X-192007Y269279D01*
X-191810Y269453D01*
X-191602Y269603D01*
X-191394Y269719D01*
X-191186Y269823D01*
X-190989Y269893D01*
X-190804Y269950D01*
X-190630Y269985D01*
X-190480Y270020D01*
X-190364Y270031D01*
X-190272Y270043D01*
X-190191D01*
X-189925Y270031D01*
D02*
G37*
G36*
X-209779Y270031D02*
X-209536Y269997D01*
X-209304Y269950D01*
X-209096Y269881D01*
X-208888Y269800D01*
X-208703Y269696D01*
X-208529Y269592D01*
X-208379Y269464D01*
X-208228Y269326D01*
X-208089Y269187D01*
X-207974Y269025D01*
X-207858Y268863D01*
X-207673Y268527D01*
X-207511Y268192D01*
X-207395Y267845D01*
X-207303Y267509D01*
X-207245Y267185D01*
X-207199Y266907D01*
X-207187Y266780D01*
X-207175Y266676D01*
X-207164Y266572D01*
Y266491D01*
X-207152Y266422D01*
Y266375D01*
Y266340D01*
Y266329D01*
X-207164Y265993D01*
X-207187Y265681D01*
X-207222Y265392D01*
X-207268Y265126D01*
X-207326Y264871D01*
X-207395Y264640D01*
X-207465Y264431D01*
X-207534Y264246D01*
X-207603Y264073D01*
X-207673Y263934D01*
X-207742Y263807D01*
X-207800Y263714D01*
X-207846Y263633D01*
X-207881Y263575D01*
X-207904Y263541D01*
X-207916Y263529D01*
X-208066Y263355D01*
X-208228Y263205D01*
X-208402Y263078D01*
X-208575Y262962D01*
X-208760Y262870D01*
X-208946Y262800D01*
X-209119Y262731D01*
X-209293Y262684D01*
X-209455Y262638D01*
X-209605Y262603D01*
X-209744Y262592D01*
X-209860Y262569D01*
X-209952D01*
X-210033Y262557D01*
X-210091D01*
X-210253Y262569D01*
X-210415Y262580D01*
X-210716Y262638D01*
X-211005Y262742D01*
X-211260Y262870D01*
X-211491Y263020D01*
X-211711Y263182D01*
X-211896Y263367D01*
X-212070Y263552D01*
X-212220Y263737D01*
X-212347Y263922D01*
X-212451Y264084D01*
X-212544Y264235D01*
X-212613Y264362D01*
X-212660Y264466D01*
X-212683Y264524D01*
X-212694Y264547D01*
X-211838Y264906D01*
X-211722Y264628D01*
X-211595Y264397D01*
X-211468Y264200D01*
X-211352Y264038D01*
X-211248Y263911D01*
X-211167Y263818D01*
X-211109Y263772D01*
X-211086Y263749D01*
X-210912Y263633D01*
X-210751Y263541D01*
X-210577Y263483D01*
X-210426Y263436D01*
X-210299Y263413D01*
X-210195Y263402D01*
X-210126Y263390D01*
X-210103D01*
X-209929Y263402D01*
X-209767Y263425D01*
X-209617Y263460D01*
X-209478Y263506D01*
X-209235Y263621D01*
X-209038Y263760D01*
X-208888Y263888D01*
X-208784Y264003D01*
X-208737Y264050D01*
X-208714Y264084D01*
X-208703Y264107D01*
X-208691Y264119D01*
X-208610Y264269D01*
X-208541Y264431D01*
X-208425Y264778D01*
X-208355Y265149D01*
X-208298Y265508D01*
X-208275Y265669D01*
X-208263Y265820D01*
X-208251Y265970D01*
Y266086D01*
X-208240Y266190D01*
Y266260D01*
Y266317D01*
Y266329D01*
Y266595D01*
X-208263Y266850D01*
X-208286Y267069D01*
X-208309Y267289D01*
X-208344Y267486D01*
X-208379Y267659D01*
X-208413Y267822D01*
X-208460Y267960D01*
X-208506Y268088D01*
X-208541Y268192D01*
X-208575Y268284D01*
X-208610Y268365D01*
X-208645Y268423D01*
X-208656Y268458D01*
X-208679Y268481D01*
Y268493D01*
X-208772Y268620D01*
X-208865Y268724D01*
X-208969Y268816D01*
X-209084Y268898D01*
X-209189Y268967D01*
X-209304Y269025D01*
X-209524Y269106D01*
X-209732Y269164D01*
X-209813Y269175D01*
X-209894Y269187D01*
X-209952Y269198D01*
X-210045D01*
X-210241Y269187D01*
X-210426Y269140D01*
X-210600Y269083D01*
X-210739Y269025D01*
X-210855Y268955D01*
X-210947Y268898D01*
X-210993Y268851D01*
X-211017Y268840D01*
X-211167Y268701D01*
X-211294Y268550D01*
X-211398Y268388D01*
X-211491Y268238D01*
X-211560Y268099D01*
X-211607Y267995D01*
X-211618Y267949D01*
X-211630Y267914D01*
X-211641Y267902D01*
Y267891D01*
X-212544Y268238D01*
X-212405Y268550D01*
X-212243Y268840D01*
X-212058Y269071D01*
X-211861Y269279D01*
X-211665Y269453D01*
X-211456Y269603D01*
X-211248Y269719D01*
X-211040Y269823D01*
X-210843Y269893D01*
X-210658Y269950D01*
X-210484Y269985D01*
X-210334Y270020D01*
X-210218Y270031D01*
X-210126Y270043D01*
X-210045D01*
X-209779Y270031D01*
D02*
G37*
G36*
X-229633D02*
X-229390Y269997D01*
X-229158Y269950D01*
X-228950Y269881D01*
X-228742Y269800D01*
X-228557Y269696D01*
X-228383Y269592D01*
X-228233Y269464D01*
X-228082Y269326D01*
X-227943Y269187D01*
X-227828Y269025D01*
X-227712Y268863D01*
X-227527Y268527D01*
X-227365Y268192D01*
X-227249Y267845D01*
X-227157Y267509D01*
X-227099Y267185D01*
X-227053Y266907D01*
X-227041Y266780D01*
X-227029Y266676D01*
X-227018Y266572D01*
Y266491D01*
X-227006Y266422D01*
Y266375D01*
Y266340D01*
Y266329D01*
X-227018Y265993D01*
X-227041Y265681D01*
X-227076Y265392D01*
X-227122Y265126D01*
X-227180Y264871D01*
X-227249Y264640D01*
X-227319Y264431D01*
X-227388Y264246D01*
X-227457Y264073D01*
X-227527Y263934D01*
X-227596Y263807D01*
X-227654Y263714D01*
X-227700Y263633D01*
X-227735Y263575D01*
X-227758Y263541D01*
X-227770Y263529D01*
X-227920Y263355D01*
X-228082Y263205D01*
X-228256Y263078D01*
X-228429Y262962D01*
X-228615Y262870D01*
X-228800Y262800D01*
X-228973Y262731D01*
X-229147Y262684D01*
X-229309Y262638D01*
X-229459Y262603D01*
X-229598Y262592D01*
X-229714Y262569D01*
X-229806D01*
X-229887Y262557D01*
X-229945D01*
X-230107Y262569D01*
X-230269Y262580D01*
X-230570Y262638D01*
X-230859Y262742D01*
X-231114Y262870D01*
X-231345Y263020D01*
X-231565Y263182D01*
X-231750Y263367D01*
X-231924Y263552D01*
X-232074Y263737D01*
X-232201Y263922D01*
X-232305Y264084D01*
X-232398Y264235D01*
X-232467Y264362D01*
X-232514Y264466D01*
X-232537Y264524D01*
X-232548Y264547D01*
X-231692Y264906D01*
X-231576Y264628D01*
X-231449Y264397D01*
X-231322Y264200D01*
X-231206Y264038D01*
X-231102Y263911D01*
X-231021Y263818D01*
X-230963Y263772D01*
X-230940Y263749D01*
X-230767Y263633D01*
X-230605Y263541D01*
X-230431Y263483D01*
X-230281Y263436D01*
X-230153Y263413D01*
X-230049Y263402D01*
X-229980Y263390D01*
X-229957D01*
X-229783Y263402D01*
X-229621Y263425D01*
X-229471Y263460D01*
X-229332Y263506D01*
X-229089Y263621D01*
X-228892Y263760D01*
X-228742Y263888D01*
X-228638Y264003D01*
X-228591Y264050D01*
X-228568Y264084D01*
X-228557Y264107D01*
X-228545Y264119D01*
X-228464Y264269D01*
X-228395Y264431D01*
X-228279Y264778D01*
X-228210Y265149D01*
X-228152Y265508D01*
X-228129Y265669D01*
X-228117Y265820D01*
X-228105Y265970D01*
Y266086D01*
X-228094Y266190D01*
Y266260D01*
Y266317D01*
Y266329D01*
Y266595D01*
X-228117Y266850D01*
X-228140Y267069D01*
X-228163Y267289D01*
X-228198Y267486D01*
X-228233Y267659D01*
X-228268Y267822D01*
X-228314Y267960D01*
X-228360Y268088D01*
X-228395Y268192D01*
X-228429Y268284D01*
X-228464Y268365D01*
X-228499Y268423D01*
X-228510Y268458D01*
X-228534Y268481D01*
Y268493D01*
X-228626Y268620D01*
X-228719Y268724D01*
X-228823Y268816D01*
X-228939Y268898D01*
X-229043Y268967D01*
X-229158Y269025D01*
X-229378Y269106D01*
X-229586Y269164D01*
X-229667Y269175D01*
X-229748Y269187D01*
X-229806Y269198D01*
X-229899D01*
X-230096Y269187D01*
X-230281Y269140D01*
X-230454Y269083D01*
X-230593Y269025D01*
X-230709Y268955D01*
X-230801Y268898D01*
X-230848Y268851D01*
X-230871Y268840D01*
X-231021Y268701D01*
X-231148Y268550D01*
X-231253Y268388D01*
X-231345Y268238D01*
X-231415Y268099D01*
X-231461Y267995D01*
X-231472Y267949D01*
X-231484Y267914D01*
X-231495Y267902D01*
Y267891D01*
X-232398Y268238D01*
X-232259Y268550D01*
X-232097Y268840D01*
X-231912Y269071D01*
X-231715Y269279D01*
X-231519Y269453D01*
X-231310Y269603D01*
X-231102Y269719D01*
X-230894Y269823D01*
X-230697Y269893D01*
X-230512Y269950D01*
X-230339Y269985D01*
X-230188Y270020D01*
X-230072Y270031D01*
X-229980Y270043D01*
X-229899D01*
X-229633Y270031D01*
D02*
G37*
G36*
X-249487D02*
X-249244Y269997D01*
X-249012Y269950D01*
X-248804Y269881D01*
X-248596Y269800D01*
X-248411Y269696D01*
X-248237Y269592D01*
X-248087Y269464D01*
X-247937Y269326D01*
X-247798Y269187D01*
X-247682Y269025D01*
X-247566Y268863D01*
X-247381Y268527D01*
X-247219Y268192D01*
X-247103Y267845D01*
X-247011Y267509D01*
X-246953Y267185D01*
X-246907Y266907D01*
X-246895Y266780D01*
X-246884Y266676D01*
X-246872Y266572D01*
Y266491D01*
X-246860Y266422D01*
Y266375D01*
Y266340D01*
Y266329D01*
X-246872Y265993D01*
X-246895Y265681D01*
X-246930Y265392D01*
X-246976Y265126D01*
X-247034Y264871D01*
X-247103Y264640D01*
X-247173Y264431D01*
X-247242Y264246D01*
X-247312Y264073D01*
X-247381Y263934D01*
X-247450Y263807D01*
X-247508Y263714D01*
X-247555Y263633D01*
X-247589Y263575D01*
X-247613Y263541D01*
X-247624Y263529D01*
X-247775Y263355D01*
X-247937Y263205D01*
X-248110Y263078D01*
X-248284Y262962D01*
X-248469Y262870D01*
X-248654Y262800D01*
X-248827Y262731D01*
X-249001Y262684D01*
X-249163Y262638D01*
X-249313Y262603D01*
X-249452Y262592D01*
X-249568Y262569D01*
X-249660D01*
X-249741Y262557D01*
X-249799D01*
X-249961Y262569D01*
X-250123Y262580D01*
X-250424Y262638D01*
X-250713Y262742D01*
X-250968Y262870D01*
X-251199Y263020D01*
X-251419Y263182D01*
X-251604Y263367D01*
X-251778Y263552D01*
X-251928Y263737D01*
X-252055Y263922D01*
X-252160Y264084D01*
X-252252Y264235D01*
X-252322Y264362D01*
X-252368Y264466D01*
X-252391Y264524D01*
X-252402Y264547D01*
X-251546Y264906D01*
X-251431Y264628D01*
X-251303Y264397D01*
X-251176Y264200D01*
X-251060Y264038D01*
X-250956Y263911D01*
X-250875Y263818D01*
X-250817Y263772D01*
X-250794Y263749D01*
X-250621Y263633D01*
X-250459Y263541D01*
X-250285Y263483D01*
X-250135Y263436D01*
X-250008Y263413D01*
X-249903Y263402D01*
X-249834Y263390D01*
X-249811D01*
X-249637Y263402D01*
X-249475Y263425D01*
X-249325Y263460D01*
X-249186Y263506D01*
X-248943Y263621D01*
X-248746Y263760D01*
X-248596Y263888D01*
X-248492Y264003D01*
X-248446Y264050D01*
X-248422Y264084D01*
X-248411Y264107D01*
X-248399Y264119D01*
X-248318Y264269D01*
X-248249Y264431D01*
X-248133Y264778D01*
X-248064Y265149D01*
X-248006Y265508D01*
X-247983Y265669D01*
X-247971Y265820D01*
X-247960Y265970D01*
Y266086D01*
X-247948Y266190D01*
Y266260D01*
Y266317D01*
Y266329D01*
Y266595D01*
X-247971Y266850D01*
X-247994Y267069D01*
X-248017Y267289D01*
X-248052Y267486D01*
X-248087Y267659D01*
X-248122Y267822D01*
X-248168Y267960D01*
X-248214Y268088D01*
X-248249Y268192D01*
X-248284Y268284D01*
X-248318Y268365D01*
X-248353Y268423D01*
X-248364Y268458D01*
X-248388Y268481D01*
Y268493D01*
X-248480Y268620D01*
X-248573Y268724D01*
X-248677Y268816D01*
X-248793Y268898D01*
X-248897Y268967D01*
X-249012Y269025D01*
X-249232Y269106D01*
X-249441Y269164D01*
X-249521Y269175D01*
X-249603Y269187D01*
X-249660Y269198D01*
X-249753D01*
X-249950Y269187D01*
X-250135Y269140D01*
X-250308Y269083D01*
X-250447Y269025D01*
X-250563Y268955D01*
X-250655Y268898D01*
X-250702Y268851D01*
X-250725Y268840D01*
X-250875Y268701D01*
X-251003Y268550D01*
X-251107Y268388D01*
X-251199Y268238D01*
X-251269Y268099D01*
X-251315Y267995D01*
X-251326Y267949D01*
X-251338Y267914D01*
X-251350Y267902D01*
Y267891D01*
X-252252Y268238D01*
X-252113Y268550D01*
X-251951Y268840D01*
X-251766Y269071D01*
X-251569Y269279D01*
X-251373Y269453D01*
X-251165Y269603D01*
X-250956Y269719D01*
X-250748Y269823D01*
X-250551Y269893D01*
X-250366Y269950D01*
X-250193Y269985D01*
X-250042Y270020D01*
X-249926Y270031D01*
X-249834Y270043D01*
X-249753D01*
X-249487Y270031D01*
D02*
G37*
G36*
X-181351Y262661D02*
X-185991D01*
Y263506D01*
X-182381D01*
Y269927D01*
X-181351D01*
Y262661D01*
D02*
G37*
G36*
X-201205D02*
X-205845Y262661D01*
Y263506D01*
X-202235Y263506D01*
Y269927D01*
X-201205D01*
Y262661D01*
D02*
G37*
G36*
X-221059Y262661D02*
X-225699D01*
Y263506D01*
X-222089D01*
Y269927D01*
X-221059D01*
Y262661D01*
D02*
G37*
G36*
X-240914D02*
X-245553D01*
Y263506D01*
X-241943D01*
Y269927D01*
X-240914D01*
Y262661D01*
D02*
G37*
G36*
X-176064Y269083D02*
X-177741D01*
Y264894D01*
X-177730Y264628D01*
X-177695Y264397D01*
X-177637Y264200D01*
X-177568Y264026D01*
X-177487Y263876D01*
X-177383Y263760D01*
X-177290Y263656D01*
X-177186Y263575D01*
X-177070Y263517D01*
X-176978Y263471D01*
X-176885Y263436D01*
X-176793Y263413D01*
X-176723Y263402D01*
X-176665Y263390D01*
X-176619D01*
X-176445Y263402D01*
X-176295Y263448D01*
X-176156Y263494D01*
X-176040Y263564D01*
X-175948Y263621D01*
X-175879Y263679D01*
X-175832Y263714D01*
X-175821Y263726D01*
X-175716Y263864D01*
X-175624Y264026D01*
X-175555Y264189D01*
X-175497Y264351D01*
X-175450Y264501D01*
X-175427Y264617D01*
X-175416Y264663D01*
X-175404Y264698D01*
Y264709D01*
Y264721D01*
X-174398Y264547D01*
X-174444Y264362D01*
X-174490Y264189D01*
X-174536Y264026D01*
X-174594Y263876D01*
X-174652Y263737D01*
X-174722Y263610D01*
X-174779Y263506D01*
X-174837Y263402D01*
X-174895Y263321D01*
X-174953Y263240D01*
X-175011Y263170D01*
X-175046Y263124D01*
X-175092Y263078D01*
X-175115Y263055D01*
X-175126Y263043D01*
X-175138Y263032D01*
X-175358Y262870D01*
X-175601Y262754D01*
X-175844Y262673D01*
X-176087Y262615D01*
X-176295Y262580D01*
X-176376Y262569D01*
X-176457D01*
X-176515Y262557D01*
X-176607D01*
X-176793Y262569D01*
X-176966Y262580D01*
X-177140Y262615D01*
X-177290Y262650D01*
X-177429Y262696D01*
X-177556Y262754D01*
X-177683Y262812D01*
X-177787Y262870D01*
X-177880Y262916D01*
X-177961Y262974D01*
X-178031Y263032D01*
X-178088Y263078D01*
X-178135Y263112D01*
X-178169Y263147D01*
X-178181Y263159D01*
X-178192Y263170D01*
X-178297Y263298D01*
X-178378Y263425D01*
X-178459Y263564D01*
X-178516Y263703D01*
X-178621Y264003D01*
X-178690Y264281D01*
X-178713Y264408D01*
X-178725Y264524D01*
X-178748Y264640D01*
Y264732D01*
X-178759Y264813D01*
Y264871D01*
Y264906D01*
Y264917D01*
Y269927D01*
X-176064D01*
Y269083D01*
D02*
G37*
G36*
X-195918D02*
X-197595D01*
Y264894D01*
X-197584Y264628D01*
X-197549Y264397D01*
X-197491Y264200D01*
X-197422Y264026D01*
X-197341Y263876D01*
X-197237Y263760D01*
X-197144Y263656D01*
X-197040Y263575D01*
X-196924Y263517D01*
X-196832Y263471D01*
X-196739Y263436D01*
X-196647Y263413D01*
X-196577Y263402D01*
X-196519Y263390D01*
X-196473D01*
X-196300Y263402D01*
X-196149Y263448D01*
X-196010Y263494D01*
X-195895Y263564D01*
X-195802Y263621D01*
X-195733Y263679D01*
X-195686Y263714D01*
X-195675Y263726D01*
X-195571Y263864D01*
X-195478Y264026D01*
X-195409Y264189D01*
X-195351Y264351D01*
X-195305Y264501D01*
X-195281Y264617D01*
X-195270Y264663D01*
X-195258Y264698D01*
Y264709D01*
Y264721D01*
X-194252Y264547D01*
X-194298Y264362D01*
X-194344Y264189D01*
X-194390Y264026D01*
X-194448Y263876D01*
X-194506Y263737D01*
X-194576Y263610D01*
X-194633Y263506D01*
X-194691Y263402D01*
X-194749Y263321D01*
X-194807Y263240D01*
X-194865Y263170D01*
X-194900Y263124D01*
X-194946Y263078D01*
X-194969Y263055D01*
X-194981Y263043D01*
X-194992Y263032D01*
X-195212Y262870D01*
X-195455Y262754D01*
X-195698Y262673D01*
X-195941Y262615D01*
X-196149Y262580D01*
X-196230Y262569D01*
X-196311D01*
X-196369Y262557D01*
X-196461D01*
X-196647Y262569D01*
X-196820Y262580D01*
X-196994Y262615D01*
X-197144Y262650D01*
X-197283Y262696D01*
X-197410Y262754D01*
X-197538Y262812D01*
X-197642Y262870D01*
X-197734Y262916D01*
X-197815Y262974D01*
X-197885Y263032D01*
X-197942Y263078D01*
X-197989Y263112D01*
X-198023Y263147D01*
X-198035Y263159D01*
X-198047Y263170D01*
X-198151Y263298D01*
X-198232Y263425D01*
X-198313Y263564D01*
X-198371Y263703D01*
X-198475Y264003D01*
X-198544Y264281D01*
X-198567Y264408D01*
X-198579Y264524D01*
X-198602Y264640D01*
Y264732D01*
X-198614Y264813D01*
Y264871D01*
Y264906D01*
Y264917D01*
Y269927D01*
X-195918D01*
Y269083D01*
D02*
G37*
G36*
X-215772Y269083D02*
X-217449D01*
Y264894D01*
X-217438Y264628D01*
X-217403Y264397D01*
X-217345Y264200D01*
X-217276Y264026D01*
X-217195Y263876D01*
X-217091Y263760D01*
X-216998Y263656D01*
X-216894Y263575D01*
X-216778Y263517D01*
X-216686Y263471D01*
X-216593Y263436D01*
X-216501Y263413D01*
X-216431Y263402D01*
X-216373Y263390D01*
X-216327D01*
X-216154Y263402D01*
X-216003Y263448D01*
X-215864Y263494D01*
X-215749Y263564D01*
X-215656Y263621D01*
X-215587Y263679D01*
X-215541Y263714D01*
X-215529Y263726D01*
X-215425Y263864D01*
X-215332Y264026D01*
X-215263Y264189D01*
X-215205Y264351D01*
X-215159Y264501D01*
X-215136Y264617D01*
X-215124Y264663D01*
X-215112Y264698D01*
Y264709D01*
Y264721D01*
X-214106Y264547D01*
X-214152Y264362D01*
X-214198Y264189D01*
X-214245Y264026D01*
X-214302Y263876D01*
X-214360Y263737D01*
X-214430Y263610D01*
X-214488Y263506D01*
X-214545Y263402D01*
X-214603Y263321D01*
X-214661Y263240D01*
X-214719Y263170D01*
X-214754Y263124D01*
X-214800Y263078D01*
X-214823Y263055D01*
X-214835Y263043D01*
X-214846Y263032D01*
X-215066Y262870D01*
X-215309Y262754D01*
X-215552Y262673D01*
X-215795Y262615D01*
X-216003Y262580D01*
X-216084Y262569D01*
X-216165D01*
X-216223Y262557D01*
X-216316D01*
X-216501Y262569D01*
X-216674Y262580D01*
X-216848Y262615D01*
X-216998Y262650D01*
X-217137Y262696D01*
X-217264Y262754D01*
X-217392Y262812D01*
X-217496Y262870D01*
X-217588Y262916D01*
X-217669Y262974D01*
X-217739Y263032D01*
X-217797Y263078D01*
X-217843Y263112D01*
X-217878Y263147D01*
X-217889Y263159D01*
X-217901Y263170D01*
X-218005Y263298D01*
X-218086Y263425D01*
X-218167Y263564D01*
X-218225Y263703D01*
X-218329Y264003D01*
X-218398Y264281D01*
X-218421Y264408D01*
X-218433Y264524D01*
X-218456Y264640D01*
Y264732D01*
X-218468Y264813D01*
Y264871D01*
Y264906D01*
Y264917D01*
Y269927D01*
X-215772D01*
Y269083D01*
D02*
G37*
G36*
X-235626D02*
X-237304D01*
Y264894D01*
X-237292Y264628D01*
X-237257Y264397D01*
X-237199Y264200D01*
X-237130Y264026D01*
X-237049Y263876D01*
X-236945Y263760D01*
X-236852Y263656D01*
X-236748Y263575D01*
X-236633Y263517D01*
X-236540Y263471D01*
X-236447Y263436D01*
X-236355Y263413D01*
X-236285Y263402D01*
X-236228Y263390D01*
X-236181D01*
X-236008Y263402D01*
X-235857Y263448D01*
X-235718Y263494D01*
X-235603Y263564D01*
X-235510Y263621D01*
X-235441Y263679D01*
X-235395Y263714D01*
X-235383Y263726D01*
X-235279Y263864D01*
X-235186Y264026D01*
X-235117Y264189D01*
X-235059Y264351D01*
X-235013Y264501D01*
X-234990Y264617D01*
X-234978Y264663D01*
X-234966Y264698D01*
Y264709D01*
Y264721D01*
X-233960Y264547D01*
X-234006Y264362D01*
X-234052Y264189D01*
X-234099Y264026D01*
X-234157Y263876D01*
X-234214Y263737D01*
X-234284Y263610D01*
X-234342Y263506D01*
X-234400Y263402D01*
X-234457Y263321D01*
X-234515Y263240D01*
X-234573Y263170D01*
X-234608Y263124D01*
X-234654Y263078D01*
X-234677Y263055D01*
X-234689Y263043D01*
X-234700Y263032D01*
X-234920Y262870D01*
X-235163Y262754D01*
X-235406Y262673D01*
X-235649Y262615D01*
X-235857Y262580D01*
X-235938Y262569D01*
X-236019D01*
X-236077Y262557D01*
X-236170D01*
X-236355Y262569D01*
X-236528Y262580D01*
X-236702Y262615D01*
X-236852Y262650D01*
X-236991Y262696D01*
X-237119Y262754D01*
X-237246Y262812D01*
X-237350Y262870D01*
X-237442Y262916D01*
X-237524Y262974D01*
X-237593Y263032D01*
X-237651Y263078D01*
X-237697Y263112D01*
X-237732Y263147D01*
X-237743Y263159D01*
X-237755Y263170D01*
X-237859Y263298D01*
X-237940Y263425D01*
X-238021Y263564D01*
X-238079Y263703D01*
X-238183Y264003D01*
X-238252Y264281D01*
X-238276Y264408D01*
X-238287Y264524D01*
X-238310Y264640D01*
Y264732D01*
X-238322Y264813D01*
Y264871D01*
Y264906D01*
Y264917D01*
Y269927D01*
X-235626D01*
Y269083D01*
D02*
G37*
M02*
