G04*
G04 #@! TF.GenerationSoftware,Altium Limited,Altium Designer,22.3.1 (43)*
G04*
G04 Layer_Color=32896*
%FSLAX25Y25*%
%MOIN*%
G70*
G04*
G04 #@! TF.SameCoordinates,DA3484B2-379A-4760-9511-B3EEAB77B53A*
G04*
G04*
G04 #@! TF.FilePolarity,Positive*
G04*
G01*
G75*
G36*
X18315Y3970D02*
X18578Y3942D01*
X18814Y3900D01*
X19023Y3845D01*
X19203Y3789D01*
X19328Y3748D01*
X19411Y3720D01*
X19425Y3706D01*
X19439D01*
X19661Y3595D01*
X19869Y3470D01*
X20050Y3331D01*
X20216Y3206D01*
X20341Y3081D01*
X20438Y2984D01*
X20494Y2929D01*
X20522Y2901D01*
X20674Y2693D01*
X20813Y2471D01*
X20938Y2262D01*
X21035Y2054D01*
X21118Y1874D01*
X21174Y1735D01*
X21188Y1680D01*
X21202Y1638D01*
X21216Y1624D01*
Y1610D01*
X21299Y1319D01*
X21354Y1027D01*
X21396Y736D01*
X21424Y472D01*
X21438Y250D01*
Y153D01*
X21452Y69D01*
Y0D01*
Y-55D01*
Y-83D01*
Y-97D01*
X21438Y-444D01*
X21410Y-750D01*
X21382Y-1041D01*
X21340Y-1277D01*
X21299Y-1485D01*
X21285Y-1568D01*
X21257Y-1638D01*
X21243Y-1693D01*
Y-1735D01*
X21229Y-1749D01*
Y-1763D01*
X21132Y-2026D01*
X21021Y-2262D01*
X20910Y-2471D01*
X20813Y-2637D01*
X20716Y-2790D01*
X20633Y-2901D01*
X20577Y-2956D01*
X20563Y-2984D01*
X20397Y-3151D01*
X20216Y-3303D01*
X20050Y-3428D01*
X19883Y-3539D01*
X19744Y-3609D01*
X19633Y-3678D01*
X19564Y-3706D01*
X19536Y-3720D01*
X19300Y-3803D01*
X19064Y-3859D01*
X18828Y-3914D01*
X18620Y-3942D01*
X18440Y-3956D01*
X18287Y-3970D01*
X18162D01*
X17857Y-3956D01*
X17718Y-3942D01*
X17593Y-3928D01*
X17496Y-3914D01*
X17426Y-3900D01*
X17371Y-3886D01*
X17357D01*
X17093Y-3831D01*
X16982Y-3803D01*
X16885Y-3775D01*
X16816Y-3748D01*
X16760Y-3720D01*
X16718Y-3706D01*
X16705D01*
X16510Y-3609D01*
X16358Y-3539D01*
X16302Y-3498D01*
X16260Y-3484D01*
X16247Y-3456D01*
X16233D01*
X16108Y-3373D01*
X16038Y-3317D01*
X15997Y-3290D01*
X15983Y-3276D01*
X15941Y-3234D01*
X15913Y-3192D01*
X15900Y-3179D01*
Y-3165D01*
X15872Y-3109D01*
X15858Y-3081D01*
X15830Y-2998D01*
Y-2970D01*
Y-2956D01*
X15816Y-2887D01*
Y-2832D01*
Y-2790D01*
Y-2776D01*
Y-2679D01*
Y-2609D01*
X15830Y-2568D01*
Y-2554D01*
X15844Y-2485D01*
Y-2443D01*
X15858Y-2429D01*
Y-2415D01*
X15872Y-2373D01*
X15886Y-2360D01*
X15900Y-2346D01*
X15913D01*
X15955Y-2318D01*
X15983D01*
X16052Y-2332D01*
X16136Y-2373D01*
X16205Y-2429D01*
X16219Y-2443D01*
X16233D01*
X16358Y-2526D01*
X16496Y-2609D01*
X16552Y-2637D01*
X16593Y-2665D01*
X16621Y-2693D01*
X16635D01*
X16829Y-2790D01*
X17010Y-2873D01*
X17093Y-2901D01*
X17163Y-2929D01*
X17204Y-2943D01*
X17218D01*
X17496Y-3012D01*
X17621Y-3026D01*
X17746Y-3040D01*
X17857Y-3054D01*
X18023D01*
X18231Y-3040D01*
X18412Y-3026D01*
X18578Y-2998D01*
X18717Y-2956D01*
X18842Y-2915D01*
X18925Y-2887D01*
X18995Y-2873D01*
X19009Y-2859D01*
X19161Y-2776D01*
X19300Y-2693D01*
X19425Y-2596D01*
X19536Y-2498D01*
X19619Y-2415D01*
X19689Y-2346D01*
X19730Y-2304D01*
X19744Y-2290D01*
X19841Y-2138D01*
X19939Y-1985D01*
X20022Y-1832D01*
X20077Y-1680D01*
X20133Y-1541D01*
X20175Y-1443D01*
X20188Y-1374D01*
X20202Y-1346D01*
X20258Y-1124D01*
X20286Y-902D01*
X20313Y-680D01*
X20341Y-486D01*
Y-305D01*
X20355Y-167D01*
Y-111D01*
Y-69D01*
Y-55D01*
Y-42D01*
X20341Y236D01*
X20327Y486D01*
X20300Y708D01*
X20272Y902D01*
X20244Y1055D01*
X20230Y1180D01*
X20202Y1249D01*
Y1277D01*
X20133Y1485D01*
X20064Y1680D01*
X19980Y1846D01*
X19897Y1985D01*
X19841Y2110D01*
X19786Y2193D01*
X19744Y2249D01*
X19730Y2262D01*
X19605Y2401D01*
X19494Y2526D01*
X19369Y2637D01*
X19259Y2720D01*
X19161Y2790D01*
X19078Y2832D01*
X19023Y2859D01*
X19009Y2873D01*
X18842Y2943D01*
X18676Y2998D01*
X18523Y3026D01*
X18370Y3054D01*
X18245Y3067D01*
X18148Y3081D01*
X17884D01*
X17732Y3067D01*
X17593Y3040D01*
X17468Y3026D01*
X17371Y2998D01*
X17301Y2970D01*
X17260Y2956D01*
X17246D01*
X17010Y2873D01*
X16913Y2832D01*
X16829Y2790D01*
X16760Y2748D01*
X16705Y2720D01*
X16677Y2707D01*
X16663Y2693D01*
X16496Y2596D01*
X16385Y2512D01*
X16302Y2457D01*
X16274Y2443D01*
X16177Y2373D01*
X16094Y2346D01*
X16052Y2332D01*
X16038D01*
X15969Y2346D01*
X15955D01*
X15913Y2401D01*
X15900Y2415D01*
Y2429D01*
X15872Y2526D01*
X15858Y2568D01*
Y2582D01*
X15844Y2651D01*
Y2707D01*
Y2762D01*
Y2776D01*
Y2845D01*
Y2915D01*
X15858Y2943D01*
Y2956D01*
X15872Y3012D01*
Y3054D01*
X15886Y3081D01*
Y3095D01*
X15913Y3165D01*
X15927Y3192D01*
X15941Y3234D01*
X15983Y3276D01*
X16011Y3303D01*
X16025Y3317D01*
X16108Y3387D01*
X16205Y3456D01*
X16288Y3512D01*
X16302Y3525D01*
X16316D01*
X16483Y3609D01*
X16635Y3678D01*
X16705Y3706D01*
X16760Y3734D01*
X16788Y3748D01*
X16802D01*
X17010Y3817D01*
X17190Y3872D01*
X17274Y3886D01*
X17329Y3900D01*
X17371Y3914D01*
X17385D01*
X17621Y3956D01*
X17732Y3970D01*
X17829D01*
X17912Y3984D01*
X18037D01*
X18315Y3970D01*
D02*
G37*
G36*
X2686D02*
X2950Y3942D01*
X3185Y3900D01*
X3394Y3845D01*
X3574Y3789D01*
X3699Y3748D01*
X3782Y3720D01*
X3796Y3706D01*
X3810D01*
X4032Y3595D01*
X4240Y3470D01*
X4421Y3331D01*
X4587Y3206D01*
X4712Y3081D01*
X4809Y2984D01*
X4865Y2929D01*
X4893Y2901D01*
X5045Y2693D01*
X5184Y2471D01*
X5309Y2262D01*
X5406Y2054D01*
X5489Y1874D01*
X5545Y1735D01*
X5559Y1680D01*
X5573Y1638D01*
X5587Y1624D01*
Y1610D01*
X5670Y1319D01*
X5725Y1027D01*
X5767Y736D01*
X5795Y472D01*
X5809Y250D01*
Y153D01*
X5823Y69D01*
Y0D01*
Y-55D01*
Y-83D01*
Y-97D01*
X5809Y-444D01*
X5781Y-750D01*
X5753Y-1041D01*
X5712Y-1277D01*
X5670Y-1485D01*
X5656Y-1568D01*
X5628Y-1638D01*
X5615Y-1693D01*
Y-1735D01*
X5601Y-1749D01*
Y-1763D01*
X5503Y-2026D01*
X5392Y-2262D01*
X5281Y-2471D01*
X5184Y-2637D01*
X5087Y-2790D01*
X5004Y-2901D01*
X4948Y-2956D01*
X4934Y-2984D01*
X4768Y-3151D01*
X4587Y-3303D01*
X4421Y-3428D01*
X4254Y-3539D01*
X4115Y-3609D01*
X4004Y-3678D01*
X3935Y-3706D01*
X3907Y-3720D01*
X3671Y-3803D01*
X3435Y-3859D01*
X3199Y-3914D01*
X2991Y-3942D01*
X2811Y-3956D01*
X2658Y-3970D01*
X2533D01*
X2228Y-3956D01*
X2089Y-3942D01*
X1964Y-3928D01*
X1867Y-3914D01*
X1798Y-3900D01*
X1742Y-3886D01*
X1728D01*
X1464Y-3831D01*
X1353Y-3803D01*
X1256Y-3775D01*
X1187Y-3748D01*
X1131Y-3720D01*
X1090Y-3706D01*
X1076D01*
X881Y-3609D01*
X729Y-3539D01*
X673Y-3498D01*
X631Y-3484D01*
X618Y-3456D01*
X604D01*
X479Y-3373D01*
X410Y-3317D01*
X368Y-3290D01*
X354Y-3276D01*
X312Y-3234D01*
X285Y-3192D01*
X271Y-3179D01*
Y-3165D01*
X243Y-3109D01*
X229Y-3081D01*
X201Y-2998D01*
Y-2970D01*
Y-2956D01*
X187Y-2887D01*
Y-2832D01*
Y-2790D01*
Y-2776D01*
Y-2679D01*
Y-2609D01*
X201Y-2568D01*
Y-2554D01*
X215Y-2485D01*
Y-2443D01*
X229Y-2429D01*
Y-2415D01*
X243Y-2373D01*
X257Y-2360D01*
X271Y-2346D01*
X285D01*
X326Y-2318D01*
X354D01*
X423Y-2332D01*
X507Y-2373D01*
X576Y-2429D01*
X590Y-2443D01*
X604D01*
X729Y-2526D01*
X867Y-2609D01*
X923Y-2637D01*
X965Y-2665D01*
X992Y-2693D01*
X1006D01*
X1201Y-2790D01*
X1381Y-2873D01*
X1464Y-2901D01*
X1534Y-2929D01*
X1575Y-2943D01*
X1589D01*
X1867Y-3012D01*
X1992Y-3026D01*
X2117Y-3040D01*
X2228Y-3054D01*
X2394D01*
X2602Y-3040D01*
X2783Y-3026D01*
X2950Y-2998D01*
X3088Y-2956D01*
X3213Y-2915D01*
X3297Y-2887D01*
X3366Y-2873D01*
X3380Y-2859D01*
X3532Y-2776D01*
X3671Y-2693D01*
X3796Y-2596D01*
X3907Y-2498D01*
X3991Y-2415D01*
X4060Y-2346D01*
X4101Y-2304D01*
X4115Y-2290D01*
X4213Y-2138D01*
X4310Y-1985D01*
X4393Y-1832D01*
X4448Y-1680D01*
X4504Y-1541D01*
X4546Y-1443D01*
X4560Y-1374D01*
X4574Y-1346D01*
X4629Y-1124D01*
X4657Y-902D01*
X4685Y-680D01*
X4712Y-486D01*
Y-305D01*
X4726Y-167D01*
Y-111D01*
Y-69D01*
Y-55D01*
Y-42D01*
X4712Y236D01*
X4698Y486D01*
X4671Y708D01*
X4643Y902D01*
X4615Y1055D01*
X4601Y1180D01*
X4574Y1249D01*
Y1277D01*
X4504Y1485D01*
X4435Y1680D01*
X4351Y1846D01*
X4268Y1985D01*
X4213Y2110D01*
X4157Y2193D01*
X4115Y2249D01*
X4101Y2262D01*
X3977Y2401D01*
X3866Y2526D01*
X3741Y2637D01*
X3630Y2720D01*
X3532Y2790D01*
X3449Y2832D01*
X3394Y2859D01*
X3380Y2873D01*
X3213Y2943D01*
X3047Y2998D01*
X2894Y3026D01*
X2741Y3054D01*
X2616Y3067D01*
X2519Y3081D01*
X2255D01*
X2103Y3067D01*
X1964Y3040D01*
X1839Y3026D01*
X1742Y2998D01*
X1672Y2970D01*
X1631Y2956D01*
X1617D01*
X1381Y2873D01*
X1284Y2832D01*
X1201Y2790D01*
X1131Y2748D01*
X1076Y2720D01*
X1048Y2707D01*
X1034Y2693D01*
X867Y2596D01*
X757Y2512D01*
X673Y2457D01*
X645Y2443D01*
X548Y2373D01*
X465Y2346D01*
X423Y2332D01*
X410D01*
X340Y2346D01*
X326D01*
X285Y2401D01*
X271Y2415D01*
Y2429D01*
X243Y2526D01*
X229Y2568D01*
Y2582D01*
X215Y2651D01*
Y2707D01*
Y2762D01*
Y2776D01*
Y2845D01*
Y2915D01*
X229Y2943D01*
Y2956D01*
X243Y3012D01*
Y3054D01*
X257Y3081D01*
Y3095D01*
X285Y3165D01*
X298Y3192D01*
X312Y3234D01*
X354Y3276D01*
X382Y3303D01*
X396Y3317D01*
X479Y3387D01*
X576Y3456D01*
X659Y3512D01*
X673Y3525D01*
X687D01*
X854Y3609D01*
X1006Y3678D01*
X1076Y3706D01*
X1131Y3734D01*
X1159Y3748D01*
X1173D01*
X1381Y3817D01*
X1562Y3872D01*
X1645Y3886D01*
X1700Y3900D01*
X1742Y3914D01*
X1756D01*
X1992Y3956D01*
X2103Y3970D01*
X2200D01*
X2283Y3984D01*
X2408D01*
X2686Y3970D01*
D02*
G37*
G36*
X-12943D02*
X-12679Y3942D01*
X-12443Y3900D01*
X-12235Y3845D01*
X-12055Y3789D01*
X-11930Y3748D01*
X-11847Y3720D01*
X-11833Y3706D01*
X-11819D01*
X-11597Y3595D01*
X-11389Y3470D01*
X-11208Y3331D01*
X-11041Y3206D01*
X-10917Y3081D01*
X-10819Y2984D01*
X-10764Y2929D01*
X-10736Y2901D01*
X-10583Y2693D01*
X-10445Y2471D01*
X-10320Y2262D01*
X-10223Y2054D01*
X-10139Y1874D01*
X-10084Y1735D01*
X-10070Y1680D01*
X-10056Y1638D01*
X-10042Y1624D01*
Y1610D01*
X-9959Y1319D01*
X-9903Y1027D01*
X-9862Y736D01*
X-9834Y472D01*
X-9820Y250D01*
Y153D01*
X-9806Y69D01*
Y0D01*
Y-55D01*
Y-83D01*
Y-97D01*
X-9820Y-444D01*
X-9848Y-750D01*
X-9876Y-1041D01*
X-9917Y-1277D01*
X-9959Y-1485D01*
X-9973Y-1568D01*
X-10001Y-1638D01*
X-10014Y-1693D01*
Y-1735D01*
X-10028Y-1749D01*
Y-1763D01*
X-10125Y-2026D01*
X-10237Y-2262D01*
X-10347Y-2471D01*
X-10445Y-2637D01*
X-10542Y-2790D01*
X-10625Y-2901D01*
X-10681Y-2956D01*
X-10695Y-2984D01*
X-10861Y-3151D01*
X-11041Y-3303D01*
X-11208Y-3428D01*
X-11375Y-3539D01*
X-11513Y-3609D01*
X-11625Y-3678D01*
X-11694Y-3706D01*
X-11722Y-3720D01*
X-11958Y-3803D01*
X-12194Y-3859D01*
X-12430Y-3914D01*
X-12638Y-3942D01*
X-12818Y-3956D01*
X-12971Y-3970D01*
X-13096D01*
X-13401Y-3956D01*
X-13540Y-3942D01*
X-13665Y-3928D01*
X-13762Y-3914D01*
X-13831Y-3900D01*
X-13887Y-3886D01*
X-13901D01*
X-14164Y-3831D01*
X-14276Y-3803D01*
X-14373Y-3775D01*
X-14442Y-3748D01*
X-14498Y-3720D01*
X-14539Y-3706D01*
X-14553D01*
X-14748Y-3609D01*
X-14900Y-3539D01*
X-14956Y-3498D01*
X-14997Y-3484D01*
X-15011Y-3456D01*
X-15025D01*
X-15150Y-3373D01*
X-15219Y-3317D01*
X-15261Y-3290D01*
X-15275Y-3276D01*
X-15317Y-3234D01*
X-15344Y-3192D01*
X-15358Y-3179D01*
Y-3165D01*
X-15386Y-3109D01*
X-15400Y-3081D01*
X-15428Y-2998D01*
Y-2970D01*
Y-2956D01*
X-15441Y-2887D01*
Y-2832D01*
Y-2790D01*
Y-2776D01*
Y-2679D01*
Y-2609D01*
X-15428Y-2568D01*
Y-2554D01*
X-15414Y-2485D01*
Y-2443D01*
X-15400Y-2429D01*
Y-2415D01*
X-15386Y-2373D01*
X-15372Y-2360D01*
X-15358Y-2346D01*
X-15344D01*
X-15303Y-2318D01*
X-15275D01*
X-15205Y-2332D01*
X-15122Y-2373D01*
X-15053Y-2429D01*
X-15039Y-2443D01*
X-15025D01*
X-14900Y-2526D01*
X-14761Y-2609D01*
X-14706Y-2637D01*
X-14664Y-2665D01*
X-14637Y-2693D01*
X-14623D01*
X-14428Y-2790D01*
X-14248Y-2873D01*
X-14164Y-2901D01*
X-14095Y-2929D01*
X-14053Y-2943D01*
X-14040D01*
X-13762Y-3012D01*
X-13637Y-3026D01*
X-13512Y-3040D01*
X-13401Y-3054D01*
X-13235D01*
X-13026Y-3040D01*
X-12846Y-3026D01*
X-12679Y-2998D01*
X-12541Y-2956D01*
X-12416Y-2915D01*
X-12332Y-2887D01*
X-12263Y-2873D01*
X-12249Y-2859D01*
X-12096Y-2776D01*
X-11958Y-2693D01*
X-11833Y-2596D01*
X-11722Y-2498D01*
X-11638Y-2415D01*
X-11569Y-2346D01*
X-11527Y-2304D01*
X-11513Y-2290D01*
X-11416Y-2138D01*
X-11319Y-1985D01*
X-11236Y-1832D01*
X-11180Y-1680D01*
X-11125Y-1541D01*
X-11083Y-1443D01*
X-11069Y-1374D01*
X-11055Y-1346D01*
X-11000Y-1124D01*
X-10972Y-902D01*
X-10944Y-680D01*
X-10917Y-486D01*
Y-305D01*
X-10903Y-167D01*
Y-111D01*
Y-69D01*
Y-55D01*
Y-42D01*
X-10917Y236D01*
X-10931Y486D01*
X-10958Y708D01*
X-10986Y902D01*
X-11014Y1055D01*
X-11028Y1180D01*
X-11055Y1249D01*
Y1277D01*
X-11125Y1485D01*
X-11194Y1680D01*
X-11277Y1846D01*
X-11361Y1985D01*
X-11416Y2110D01*
X-11472Y2193D01*
X-11513Y2249D01*
X-11527Y2262D01*
X-11652Y2401D01*
X-11763Y2526D01*
X-11888Y2637D01*
X-11999Y2720D01*
X-12096Y2790D01*
X-12180Y2832D01*
X-12235Y2859D01*
X-12249Y2873D01*
X-12416Y2943D01*
X-12582Y2998D01*
X-12735Y3026D01*
X-12888Y3054D01*
X-13013Y3067D01*
X-13110Y3081D01*
X-13373D01*
X-13526Y3067D01*
X-13665Y3040D01*
X-13790Y3026D01*
X-13887Y2998D01*
X-13956Y2970D01*
X-13998Y2956D01*
X-14012D01*
X-14248Y2873D01*
X-14345Y2832D01*
X-14428Y2790D01*
X-14498Y2748D01*
X-14553Y2720D01*
X-14581Y2707D01*
X-14595Y2693D01*
X-14761Y2596D01*
X-14872Y2512D01*
X-14956Y2457D01*
X-14984Y2443D01*
X-15081Y2373D01*
X-15164Y2346D01*
X-15205Y2332D01*
X-15219D01*
X-15289Y2346D01*
X-15303D01*
X-15344Y2401D01*
X-15358Y2415D01*
Y2429D01*
X-15386Y2526D01*
X-15400Y2568D01*
Y2582D01*
X-15414Y2651D01*
Y2707D01*
Y2762D01*
Y2776D01*
Y2845D01*
Y2915D01*
X-15400Y2943D01*
Y2956D01*
X-15386Y3012D01*
Y3054D01*
X-15372Y3081D01*
Y3095D01*
X-15344Y3165D01*
X-15330Y3192D01*
X-15317Y3234D01*
X-15275Y3276D01*
X-15247Y3303D01*
X-15233Y3317D01*
X-15150Y3387D01*
X-15053Y3456D01*
X-14970Y3512D01*
X-14956Y3525D01*
X-14942D01*
X-14775Y3609D01*
X-14623Y3678D01*
X-14553Y3706D01*
X-14498Y3734D01*
X-14470Y3748D01*
X-14456D01*
X-14248Y3817D01*
X-14067Y3872D01*
X-13984Y3886D01*
X-13929Y3900D01*
X-13887Y3914D01*
X-13873D01*
X-13637Y3956D01*
X-13526Y3970D01*
X-13429D01*
X-13346Y3984D01*
X-13221D01*
X-12943Y3970D01*
D02*
G37*
G36*
X-28572D02*
X-28308Y3942D01*
X-28072Y3900D01*
X-27864Y3845D01*
X-27684Y3789D01*
X-27559Y3748D01*
X-27476Y3720D01*
X-27462Y3706D01*
X-27448D01*
X-27226Y3595D01*
X-27017Y3470D01*
X-26837Y3331D01*
X-26670Y3206D01*
X-26546Y3081D01*
X-26448Y2984D01*
X-26393Y2929D01*
X-26365Y2901D01*
X-26212Y2693D01*
X-26074Y2471D01*
X-25949Y2262D01*
X-25852Y2054D01*
X-25768Y1874D01*
X-25713Y1735D01*
X-25699Y1680D01*
X-25685Y1638D01*
X-25671Y1624D01*
Y1610D01*
X-25588Y1319D01*
X-25532Y1027D01*
X-25491Y736D01*
X-25463Y472D01*
X-25449Y250D01*
Y153D01*
X-25435Y69D01*
Y0D01*
Y-55D01*
Y-83D01*
Y-97D01*
X-25449Y-444D01*
X-25477Y-750D01*
X-25504Y-1041D01*
X-25546Y-1277D01*
X-25588Y-1485D01*
X-25602Y-1568D01*
X-25629Y-1638D01*
X-25643Y-1693D01*
Y-1735D01*
X-25657Y-1749D01*
Y-1763D01*
X-25754Y-2026D01*
X-25865Y-2262D01*
X-25976Y-2471D01*
X-26074Y-2637D01*
X-26171Y-2790D01*
X-26254Y-2901D01*
X-26309Y-2956D01*
X-26323Y-2984D01*
X-26490Y-3151D01*
X-26670Y-3303D01*
X-26837Y-3428D01*
X-27003Y-3539D01*
X-27142Y-3609D01*
X-27253Y-3678D01*
X-27323Y-3706D01*
X-27351Y-3720D01*
X-27586Y-3803D01*
X-27823Y-3859D01*
X-28058Y-3914D01*
X-28267Y-3942D01*
X-28447Y-3956D01*
X-28600Y-3970D01*
X-28725D01*
X-29030Y-3956D01*
X-29169Y-3942D01*
X-29294Y-3928D01*
X-29391Y-3914D01*
X-29460Y-3900D01*
X-29516Y-3886D01*
X-29530D01*
X-29793Y-3831D01*
X-29904Y-3803D01*
X-30002Y-3775D01*
X-30071Y-3748D01*
X-30127Y-3720D01*
X-30168Y-3706D01*
X-30182D01*
X-30376Y-3609D01*
X-30529Y-3539D01*
X-30585Y-3498D01*
X-30626Y-3484D01*
X-30640Y-3456D01*
X-30654D01*
X-30779Y-3373D01*
X-30848Y-3317D01*
X-30890Y-3290D01*
X-30904Y-3276D01*
X-30946Y-3234D01*
X-30973Y-3192D01*
X-30987Y-3179D01*
Y-3165D01*
X-31015Y-3109D01*
X-31029Y-3081D01*
X-31056Y-2998D01*
Y-2970D01*
Y-2956D01*
X-31070Y-2887D01*
Y-2832D01*
Y-2790D01*
Y-2776D01*
Y-2679D01*
Y-2609D01*
X-31056Y-2568D01*
Y-2554D01*
X-31043Y-2485D01*
Y-2443D01*
X-31029Y-2429D01*
Y-2415D01*
X-31015Y-2373D01*
X-31001Y-2360D01*
X-30987Y-2346D01*
X-30973D01*
X-30932Y-2318D01*
X-30904D01*
X-30834Y-2332D01*
X-30751Y-2373D01*
X-30682Y-2429D01*
X-30668Y-2443D01*
X-30654D01*
X-30529Y-2526D01*
X-30390Y-2609D01*
X-30335Y-2637D01*
X-30293Y-2665D01*
X-30265Y-2693D01*
X-30252D01*
X-30057Y-2790D01*
X-29877Y-2873D01*
X-29793Y-2901D01*
X-29724Y-2929D01*
X-29682Y-2943D01*
X-29669D01*
X-29391Y-3012D01*
X-29266Y-3026D01*
X-29141Y-3040D01*
X-29030Y-3054D01*
X-28863D01*
X-28655Y-3040D01*
X-28475Y-3026D01*
X-28308Y-2998D01*
X-28170Y-2956D01*
X-28045Y-2915D01*
X-27961Y-2887D01*
X-27892Y-2873D01*
X-27878Y-2859D01*
X-27725Y-2776D01*
X-27586Y-2693D01*
X-27462Y-2596D01*
X-27351Y-2498D01*
X-27267Y-2415D01*
X-27198Y-2346D01*
X-27156Y-2304D01*
X-27142Y-2290D01*
X-27045Y-2138D01*
X-26948Y-1985D01*
X-26865Y-1832D01*
X-26809Y-1680D01*
X-26754Y-1541D01*
X-26712Y-1443D01*
X-26698Y-1374D01*
X-26684Y-1346D01*
X-26629Y-1124D01*
X-26601Y-902D01*
X-26573Y-680D01*
X-26546Y-486D01*
Y-305D01*
X-26532Y-167D01*
Y-111D01*
Y-69D01*
Y-55D01*
Y-42D01*
X-26546Y236D01*
X-26559Y486D01*
X-26587Y708D01*
X-26615Y902D01*
X-26643Y1055D01*
X-26656Y1180D01*
X-26684Y1249D01*
Y1277D01*
X-26754Y1485D01*
X-26823Y1680D01*
X-26906Y1846D01*
X-26990Y1985D01*
X-27045Y2110D01*
X-27101Y2193D01*
X-27142Y2249D01*
X-27156Y2262D01*
X-27281Y2401D01*
X-27392Y2526D01*
X-27517Y2637D01*
X-27628Y2720D01*
X-27725Y2790D01*
X-27809Y2832D01*
X-27864Y2859D01*
X-27878Y2873D01*
X-28045Y2943D01*
X-28211Y2998D01*
X-28364Y3026D01*
X-28517Y3054D01*
X-28641Y3067D01*
X-28738Y3081D01*
X-29002D01*
X-29155Y3067D01*
X-29294Y3040D01*
X-29419Y3026D01*
X-29516Y2998D01*
X-29585Y2970D01*
X-29627Y2956D01*
X-29641D01*
X-29877Y2873D01*
X-29974Y2832D01*
X-30057Y2790D01*
X-30127Y2748D01*
X-30182Y2720D01*
X-30210Y2707D01*
X-30224Y2693D01*
X-30390Y2596D01*
X-30501Y2512D01*
X-30585Y2457D01*
X-30612Y2443D01*
X-30709Y2373D01*
X-30793Y2346D01*
X-30834Y2332D01*
X-30848D01*
X-30918Y2346D01*
X-30932D01*
X-30973Y2401D01*
X-30987Y2415D01*
Y2429D01*
X-31015Y2526D01*
X-31029Y2568D01*
Y2582D01*
X-31043Y2651D01*
Y2707D01*
Y2762D01*
Y2776D01*
Y2845D01*
Y2915D01*
X-31029Y2943D01*
Y2956D01*
X-31015Y3012D01*
Y3054D01*
X-31001Y3081D01*
Y3095D01*
X-30973Y3165D01*
X-30959Y3192D01*
X-30946Y3234D01*
X-30904Y3276D01*
X-30876Y3303D01*
X-30862Y3317D01*
X-30779Y3387D01*
X-30682Y3456D01*
X-30599Y3512D01*
X-30585Y3525D01*
X-30571D01*
X-30404Y3609D01*
X-30252Y3678D01*
X-30182Y3706D01*
X-30127Y3734D01*
X-30099Y3748D01*
X-30085D01*
X-29877Y3817D01*
X-29696Y3872D01*
X-29613Y3886D01*
X-29557Y3900D01*
X-29516Y3914D01*
X-29502D01*
X-29266Y3956D01*
X-29155Y3970D01*
X-29058D01*
X-28975Y3984D01*
X-28850D01*
X-28572Y3970D01*
D02*
G37*
G36*
X25838Y3914D02*
X25893Y3900D01*
X25907D01*
X25976Y3886D01*
X26032Y3872D01*
X26060Y3859D01*
X26074D01*
X26129Y3831D01*
X26157Y3817D01*
Y3803D01*
X26171Y3762D01*
Y3748D01*
Y3734D01*
Y-3456D01*
X26157Y-3609D01*
X26115Y-3706D01*
X26074Y-3775D01*
X26060Y-3789D01*
X25962Y-3831D01*
X25879Y-3859D01*
X25824Y-3872D01*
X22368D01*
X22298Y-3859D01*
X22271D01*
X22215Y-3803D01*
X22201Y-3789D01*
Y-3775D01*
X22173Y-3678D01*
X22159Y-3650D01*
Y-3637D01*
X22145Y-3567D01*
Y-3498D01*
Y-3442D01*
Y-3428D01*
Y-3345D01*
Y-3290D01*
X22159Y-3248D01*
Y-3234D01*
X22173Y-3179D01*
X22187Y-3137D01*
X22201Y-3109D01*
Y-3095D01*
X22243Y-3026D01*
X22257Y-3012D01*
X22271D01*
X22340Y-2984D01*
X25144D01*
Y3734D01*
X25157Y3789D01*
X25171Y3803D01*
X25199Y3831D01*
X25227Y3845D01*
X25255Y3859D01*
X25269D01*
X25310Y3872D01*
X25366Y3886D01*
X25407Y3900D01*
X25421D01*
X25504Y3914D01*
X25574Y3928D01*
X25754D01*
X25838Y3914D01*
D02*
G37*
G36*
X10209D02*
X10264Y3900D01*
X10278D01*
X10347Y3886D01*
X10403Y3872D01*
X10431Y3859D01*
X10445D01*
X10500Y3831D01*
X10528Y3817D01*
Y3803D01*
X10542Y3762D01*
Y3748D01*
Y3734D01*
Y-3456D01*
X10528Y-3609D01*
X10486Y-3706D01*
X10445Y-3775D01*
X10431Y-3789D01*
X10334Y-3831D01*
X10250Y-3859D01*
X10195Y-3872D01*
X6739D01*
X6669Y-3859D01*
X6642D01*
X6586Y-3803D01*
X6572Y-3789D01*
Y-3775D01*
X6544Y-3678D01*
X6531Y-3650D01*
Y-3637D01*
X6517Y-3567D01*
Y-3498D01*
Y-3442D01*
Y-3428D01*
Y-3345D01*
Y-3290D01*
X6531Y-3248D01*
Y-3234D01*
X6544Y-3179D01*
X6558Y-3137D01*
X6572Y-3109D01*
Y-3095D01*
X6614Y-3026D01*
X6628Y-3012D01*
X6642D01*
X6711Y-2984D01*
X9515D01*
Y3734D01*
X9529Y3789D01*
X9543Y3803D01*
X9570Y3831D01*
X9598Y3845D01*
X9626Y3859D01*
X9640D01*
X9681Y3872D01*
X9737Y3886D01*
X9779Y3900D01*
X9792D01*
X9876Y3914D01*
X9945Y3928D01*
X10125D01*
X10209Y3914D01*
D02*
G37*
G36*
X-5420D02*
X-5365Y3900D01*
X-5351D01*
X-5281Y3886D01*
X-5226Y3872D01*
X-5198Y3859D01*
X-5184D01*
X-5129Y3831D01*
X-5101Y3817D01*
Y3803D01*
X-5087Y3762D01*
Y3748D01*
Y3734D01*
Y-3456D01*
X-5101Y-3609D01*
X-5142Y-3706D01*
X-5184Y-3775D01*
X-5198Y-3789D01*
X-5295Y-3831D01*
X-5378Y-3859D01*
X-5434Y-3872D01*
X-8890D01*
X-8959Y-3859D01*
X-8987D01*
X-9043Y-3803D01*
X-9057Y-3789D01*
Y-3775D01*
X-9085Y-3678D01*
X-9098Y-3650D01*
Y-3637D01*
X-9112Y-3567D01*
Y-3498D01*
Y-3442D01*
Y-3428D01*
Y-3345D01*
Y-3290D01*
X-9098Y-3248D01*
Y-3234D01*
X-9085Y-3179D01*
X-9071Y-3137D01*
X-9057Y-3109D01*
Y-3095D01*
X-9015Y-3026D01*
X-9001Y-3012D01*
X-8987D01*
X-8918Y-2984D01*
X-6114D01*
Y3734D01*
X-6100Y3789D01*
X-6086Y3803D01*
X-6059Y3831D01*
X-6031Y3845D01*
X-6003Y3859D01*
X-5989D01*
X-5948Y3872D01*
X-5892Y3886D01*
X-5850Y3900D01*
X-5836D01*
X-5753Y3914D01*
X-5684Y3928D01*
X-5503D01*
X-5420Y3914D01*
D02*
G37*
G36*
X-21049D02*
X-20993Y3900D01*
X-20980D01*
X-20910Y3886D01*
X-20855Y3872D01*
X-20827Y3859D01*
X-20813D01*
X-20757Y3831D01*
X-20730Y3817D01*
Y3803D01*
X-20716Y3762D01*
Y3748D01*
Y3734D01*
Y-3456D01*
X-20730Y-3609D01*
X-20771Y-3706D01*
X-20813Y-3775D01*
X-20827Y-3789D01*
X-20924Y-3831D01*
X-21007Y-3859D01*
X-21063Y-3872D01*
X-24519D01*
X-24588Y-3859D01*
X-24616D01*
X-24672Y-3803D01*
X-24686Y-3789D01*
Y-3775D01*
X-24713Y-3678D01*
X-24727Y-3650D01*
Y-3637D01*
X-24741Y-3567D01*
Y-3498D01*
Y-3442D01*
Y-3428D01*
Y-3345D01*
Y-3290D01*
X-24727Y-3248D01*
Y-3234D01*
X-24713Y-3179D01*
X-24700Y-3137D01*
X-24686Y-3109D01*
Y-3095D01*
X-24644Y-3026D01*
X-24630Y-3012D01*
X-24616D01*
X-24547Y-2984D01*
X-21743D01*
Y3734D01*
X-21729Y3789D01*
X-21715Y3803D01*
X-21688Y3831D01*
X-21660Y3845D01*
X-21632Y3859D01*
X-21618D01*
X-21576Y3872D01*
X-21521Y3886D01*
X-21479Y3900D01*
X-21465D01*
X-21382Y3914D01*
X-21313Y3928D01*
X-21132D01*
X-21049Y3914D01*
D02*
G37*
G36*
X28961D02*
X28975D01*
X29044Y3900D01*
X29099Y3886D01*
X29127Y3872D01*
X29141D01*
X29197Y3831D01*
X29224Y3817D01*
Y3803D01*
X29238Y3762D01*
Y3748D01*
Y3734D01*
Y-1818D01*
Y-1957D01*
X29252Y-2082D01*
Y-2193D01*
X29266Y-2276D01*
X29280Y-2360D01*
Y-2415D01*
X29294Y-2443D01*
Y-2457D01*
X29335Y-2609D01*
X29377Y-2734D01*
X29419Y-2804D01*
X29432Y-2832D01*
X29516Y-2915D01*
X29599Y-2984D01*
X29655Y-3012D01*
X29669Y-3026D01*
X29682D01*
X29793Y-3054D01*
X29904Y-3067D01*
X30029D01*
X30154Y-3054D01*
X30252Y-3040D01*
X30321Y-3026D01*
X30349D01*
X30446Y-2998D01*
X30529Y-2956D01*
X30585Y-2943D01*
X30599Y-2929D01*
X30668Y-2887D01*
X30723Y-2859D01*
X30765Y-2832D01*
X30779D01*
X30821Y-2804D01*
X30862Y-2776D01*
X30904D01*
X30959Y-2790D01*
X30973Y-2804D01*
X30987D01*
X31029Y-2859D01*
X31043Y-2873D01*
Y-2887D01*
X31056Y-2929D01*
Y-2970D01*
X31070Y-2998D01*
Y-3012D01*
Y-3081D01*
Y-3151D01*
Y-3206D01*
Y-3234D01*
Y-3317D01*
Y-3373D01*
Y-3415D01*
Y-3428D01*
X31056Y-3512D01*
Y-3539D01*
Y-3553D01*
X31029Y-3609D01*
X31015Y-3623D01*
Y-3637D01*
X30973Y-3678D01*
X30959Y-3692D01*
Y-3706D01*
X30932Y-3734D01*
X30890Y-3762D01*
X30848Y-3775D01*
X30834Y-3789D01*
X30751Y-3831D01*
X30668Y-3859D01*
X30612Y-3872D01*
X30585Y-3886D01*
X30474Y-3914D01*
X30376Y-3942D01*
X30307Y-3956D01*
X30279D01*
X30154Y-3970D01*
X30043Y-3984D01*
X29766D01*
X29613Y-3956D01*
X29474Y-3942D01*
X29349Y-3914D01*
X29252Y-3886D01*
X29183Y-3872D01*
X29141Y-3845D01*
X29127D01*
X29002Y-3789D01*
X28905Y-3720D01*
X28808Y-3650D01*
X28738Y-3581D01*
X28683Y-3525D01*
X28641Y-3470D01*
X28614Y-3442D01*
X28600Y-3428D01*
X28461Y-3206D01*
X28378Y-2998D01*
X28350Y-2915D01*
X28322Y-2832D01*
X28308Y-2790D01*
Y-2776D01*
X28253Y-2485D01*
X28239Y-2332D01*
X28225Y-2207D01*
X28211Y-2096D01*
Y-2013D01*
Y-1943D01*
Y-1929D01*
Y3734D01*
X28225Y3789D01*
X28239Y3803D01*
X28267Y3831D01*
X28294Y3859D01*
X28322Y3872D01*
X28336D01*
X28378Y3886D01*
X28433Y3900D01*
X28475Y3914D01*
X28489D01*
X28572Y3928D01*
X28905D01*
X28961Y3914D01*
D02*
G37*
G36*
X13332D02*
X13346D01*
X13415Y3900D01*
X13471Y3886D01*
X13498Y3872D01*
X13512D01*
X13568Y3831D01*
X13596Y3817D01*
Y3803D01*
X13609Y3762D01*
Y3748D01*
Y3734D01*
Y-1818D01*
Y-1957D01*
X13623Y-2082D01*
Y-2193D01*
X13637Y-2276D01*
X13651Y-2360D01*
Y-2415D01*
X13665Y-2443D01*
Y-2457D01*
X13706Y-2609D01*
X13748Y-2734D01*
X13790Y-2804D01*
X13804Y-2832D01*
X13887Y-2915D01*
X13970Y-2984D01*
X14026Y-3012D01*
X14040Y-3026D01*
X14053D01*
X14164Y-3054D01*
X14276Y-3067D01*
X14401D01*
X14525Y-3054D01*
X14623Y-3040D01*
X14692Y-3026D01*
X14720D01*
X14817Y-2998D01*
X14900Y-2956D01*
X14956Y-2943D01*
X14970Y-2929D01*
X15039Y-2887D01*
X15094Y-2859D01*
X15136Y-2832D01*
X15150D01*
X15192Y-2804D01*
X15233Y-2776D01*
X15275D01*
X15330Y-2790D01*
X15344Y-2804D01*
X15358D01*
X15400Y-2859D01*
X15414Y-2873D01*
Y-2887D01*
X15428Y-2929D01*
Y-2970D01*
X15441Y-2998D01*
Y-3012D01*
Y-3081D01*
Y-3151D01*
Y-3206D01*
Y-3234D01*
Y-3317D01*
Y-3373D01*
Y-3415D01*
Y-3428D01*
X15428Y-3512D01*
Y-3539D01*
Y-3553D01*
X15400Y-3609D01*
X15386Y-3623D01*
Y-3637D01*
X15344Y-3678D01*
X15330Y-3692D01*
Y-3706D01*
X15303Y-3734D01*
X15261Y-3762D01*
X15219Y-3775D01*
X15205Y-3789D01*
X15122Y-3831D01*
X15039Y-3859D01*
X14984Y-3872D01*
X14956Y-3886D01*
X14845Y-3914D01*
X14748Y-3942D01*
X14678Y-3956D01*
X14650D01*
X14525Y-3970D01*
X14414Y-3984D01*
X14137D01*
X13984Y-3956D01*
X13845Y-3942D01*
X13720Y-3914D01*
X13623Y-3886D01*
X13554Y-3872D01*
X13512Y-3845D01*
X13498D01*
X13373Y-3789D01*
X13276Y-3720D01*
X13179Y-3650D01*
X13110Y-3581D01*
X13054Y-3525D01*
X13013Y-3470D01*
X12985Y-3442D01*
X12971Y-3428D01*
X12832Y-3206D01*
X12749Y-2998D01*
X12721Y-2915D01*
X12693Y-2832D01*
X12679Y-2790D01*
Y-2776D01*
X12624Y-2485D01*
X12610Y-2332D01*
X12596Y-2207D01*
X12582Y-2096D01*
Y-2013D01*
Y-1943D01*
Y-1929D01*
Y3734D01*
X12596Y3789D01*
X12610Y3803D01*
X12638Y3831D01*
X12665Y3859D01*
X12693Y3872D01*
X12707D01*
X12749Y3886D01*
X12804Y3900D01*
X12846Y3914D01*
X12860D01*
X12943Y3928D01*
X13276D01*
X13332Y3914D01*
D02*
G37*
G36*
X-2297D02*
X-2283D01*
X-2214Y3900D01*
X-2158Y3886D01*
X-2131Y3872D01*
X-2117D01*
X-2061Y3831D01*
X-2033Y3817D01*
Y3803D01*
X-2019Y3762D01*
Y3748D01*
Y3734D01*
Y-1818D01*
Y-1957D01*
X-2006Y-2082D01*
Y-2193D01*
X-1992Y-2276D01*
X-1978Y-2360D01*
Y-2415D01*
X-1964Y-2443D01*
Y-2457D01*
X-1922Y-2609D01*
X-1881Y-2734D01*
X-1839Y-2804D01*
X-1825Y-2832D01*
X-1742Y-2915D01*
X-1659Y-2984D01*
X-1603Y-3012D01*
X-1589Y-3026D01*
X-1575D01*
X-1464Y-3054D01*
X-1353Y-3067D01*
X-1228D01*
X-1103Y-3054D01*
X-1006Y-3040D01*
X-937Y-3026D01*
X-909D01*
X-812Y-2998D01*
X-729Y-2956D01*
X-673Y-2943D01*
X-659Y-2929D01*
X-590Y-2887D01*
X-534Y-2859D01*
X-493Y-2832D01*
X-479D01*
X-437Y-2804D01*
X-396Y-2776D01*
X-354D01*
X-298Y-2790D01*
X-285Y-2804D01*
X-271D01*
X-229Y-2859D01*
X-215Y-2873D01*
Y-2887D01*
X-201Y-2929D01*
Y-2970D01*
X-187Y-2998D01*
Y-3012D01*
Y-3081D01*
Y-3151D01*
Y-3206D01*
Y-3234D01*
Y-3317D01*
Y-3373D01*
Y-3415D01*
Y-3428D01*
X-201Y-3512D01*
Y-3539D01*
Y-3553D01*
X-229Y-3609D01*
X-243Y-3623D01*
Y-3637D01*
X-285Y-3678D01*
X-298Y-3692D01*
Y-3706D01*
X-326Y-3734D01*
X-368Y-3762D01*
X-410Y-3775D01*
X-423Y-3789D01*
X-507Y-3831D01*
X-590Y-3859D01*
X-645Y-3872D01*
X-673Y-3886D01*
X-784Y-3914D01*
X-881Y-3942D01*
X-951Y-3956D01*
X-979D01*
X-1103Y-3970D01*
X-1214Y-3984D01*
X-1492D01*
X-1645Y-3956D01*
X-1784Y-3942D01*
X-1908Y-3914D01*
X-2006Y-3886D01*
X-2075Y-3872D01*
X-2117Y-3845D01*
X-2131D01*
X-2255Y-3789D01*
X-2353Y-3720D01*
X-2450Y-3650D01*
X-2519Y-3581D01*
X-2575Y-3525D01*
X-2616Y-3470D01*
X-2644Y-3442D01*
X-2658Y-3428D01*
X-2797Y-3206D01*
X-2880Y-2998D01*
X-2908Y-2915D01*
X-2936Y-2832D01*
X-2950Y-2790D01*
Y-2776D01*
X-3005Y-2485D01*
X-3019Y-2332D01*
X-3033Y-2207D01*
X-3047Y-2096D01*
Y-2013D01*
Y-1943D01*
Y-1929D01*
Y3734D01*
X-3033Y3789D01*
X-3019Y3803D01*
X-2991Y3831D01*
X-2963Y3859D01*
X-2936Y3872D01*
X-2922D01*
X-2880Y3886D01*
X-2825Y3900D01*
X-2783Y3914D01*
X-2769D01*
X-2686Y3928D01*
X-2353D01*
X-2297Y3914D01*
D02*
G37*
G36*
X-17926D02*
X-17912D01*
X-17843Y3900D01*
X-17787Y3886D01*
X-17760Y3872D01*
X-17746D01*
X-17690Y3831D01*
X-17662Y3817D01*
Y3803D01*
X-17648Y3762D01*
Y3748D01*
Y3734D01*
Y-1818D01*
Y-1957D01*
X-17635Y-2082D01*
Y-2193D01*
X-17621Y-2276D01*
X-17607Y-2360D01*
Y-2415D01*
X-17593Y-2443D01*
Y-2457D01*
X-17551Y-2609D01*
X-17510Y-2734D01*
X-17468Y-2804D01*
X-17454Y-2832D01*
X-17371Y-2915D01*
X-17288Y-2984D01*
X-17232Y-3012D01*
X-17218Y-3026D01*
X-17204D01*
X-17093Y-3054D01*
X-16982Y-3067D01*
X-16857D01*
X-16732Y-3054D01*
X-16635Y-3040D01*
X-16566Y-3026D01*
X-16538D01*
X-16441Y-2998D01*
X-16358Y-2956D01*
X-16302Y-2943D01*
X-16288Y-2929D01*
X-16219Y-2887D01*
X-16163Y-2859D01*
X-16122Y-2832D01*
X-16108D01*
X-16066Y-2804D01*
X-16025Y-2776D01*
X-15983D01*
X-15927Y-2790D01*
X-15913Y-2804D01*
X-15900D01*
X-15858Y-2859D01*
X-15844Y-2873D01*
Y-2887D01*
X-15830Y-2929D01*
Y-2970D01*
X-15816Y-2998D01*
Y-3012D01*
Y-3081D01*
Y-3151D01*
Y-3206D01*
Y-3234D01*
Y-3317D01*
Y-3373D01*
Y-3415D01*
Y-3428D01*
X-15830Y-3512D01*
Y-3539D01*
Y-3553D01*
X-15858Y-3609D01*
X-15872Y-3623D01*
Y-3637D01*
X-15913Y-3678D01*
X-15927Y-3692D01*
Y-3706D01*
X-15955Y-3734D01*
X-15997Y-3762D01*
X-16038Y-3775D01*
X-16052Y-3789D01*
X-16136Y-3831D01*
X-16219Y-3859D01*
X-16274Y-3872D01*
X-16302Y-3886D01*
X-16413Y-3914D01*
X-16510Y-3942D01*
X-16580Y-3956D01*
X-16607D01*
X-16732Y-3970D01*
X-16843Y-3984D01*
X-17121D01*
X-17274Y-3956D01*
X-17413Y-3942D01*
X-17537Y-3914D01*
X-17635Y-3886D01*
X-17704Y-3872D01*
X-17746Y-3845D01*
X-17760D01*
X-17884Y-3789D01*
X-17981Y-3720D01*
X-18079Y-3650D01*
X-18148Y-3581D01*
X-18204Y-3525D01*
X-18245Y-3470D01*
X-18273Y-3442D01*
X-18287Y-3428D01*
X-18426Y-3206D01*
X-18509Y-2998D01*
X-18537Y-2915D01*
X-18564Y-2832D01*
X-18578Y-2790D01*
Y-2776D01*
X-18634Y-2485D01*
X-18648Y-2332D01*
X-18662Y-2207D01*
X-18676Y-2096D01*
Y-2013D01*
Y-1943D01*
Y-1929D01*
Y3734D01*
X-18662Y3789D01*
X-18648Y3803D01*
X-18620Y3831D01*
X-18592Y3859D01*
X-18564Y3872D01*
X-18551D01*
X-18509Y3886D01*
X-18453Y3900D01*
X-18412Y3914D01*
X-18398D01*
X-18315Y3928D01*
X-17981D01*
X-17926Y3914D01*
D02*
G37*
M02*
